<svg id="Layer_1" data-name="Layer 1" xmlns="http://www.w3.org/2000/svg" viewBox="0 0 1053.65 139.17"><polygon points="283.41 2.21 237.91 70.38 192.42 2.21 173.31 2.21 173.31 136.96 193.18 136.96 193.18 38.95 235.87 101.55 239.61 101.55 282.29 38.79 282.29 136.96 302.52 136.96 302.52 2.21 283.41 2.21"/><path d="M1088.52,739.58h39.28v27.86a58.11,58.11,0,0,1-34.41,11.46c-28.85,0-48.23-20.43-48.23-51.19,0-28.09,20.29-50.09,46.2-50.09,18.69,0,29,6.76,37.41,14.06l2.17,1.88L1144,678.14l-2.17-1.83c-15-12.65-29.48-17.82-49.95-17.82-37.87,0-67.55,30.57-67.55,70,0,40.75,28.15,69.22,68.47,69.22h0a80.62,80.62,0,0,0,53.69-20.46l1-.84V720.82h-59Z" transform="translate(-232.35 -658.49)"/><path d="M830,738.58c0,25.64-12.81,39.75-36.07,39.75s-36.62-14.82-36.62-40.66v-77H737.08v77.87c0,36.33,21.64,58.9,56.49,58.9,35.49,0,56.67-22.43,56.67-60V660.71H830Z" transform="translate(-232.35 -658.49)"/><path d="M637.27,778.52c-27.4,0-48-21.69-48-50.82,0-28.54,20.5-50.07,47.68-50.07,27.4,0,48.05,21.68,48.05,50.81,0,28.56-20.5,50.08-47.68,50.08m0-120c-38.6,0-68.84,30.57-68.84,70s29.43,69.21,68.46,69.21h0c38.6,0,68.84-30.56,68.84-69.95s-29.44-69.21-68.48-69.21" transform="translate(-232.35 -658.49)"/><path d="M941.05,686.53l25,56H915.92Zm-8.46-26.75L871.2,795.44h21.18l15.3-34.1h66.58l15.11,34.1h21.91L949.9,659.78Z" transform="translate(-232.35 -658.49)"/><polygon points="953.75 2.21 953.75 136.96 1053.65 136.96 1053.65 118 973.99 118 973.99 78.51 1044.43 78.51 1044.43 59.56 973.99 59.56 973.99 21.17 1052.73 21.17 1052.73 2.21 953.75 2.21"/><path d="M302.2,686.53l24.95,56H277.07Zm-8.46-26.75L232.35,795.44h21.18l15.29-34.1H335.4l15.11,34.1h21.91L311,659.78Z" transform="translate(-232.35 -658.49)"/></svg>